<mxfile host="app.diagrams.net" modified="2023-08-31T13:47:31.869Z" agent="Mozilla/5.0 (Windows NT 10.0; Win64; x64) AppleWebKit/537.36 (KHTML, like Gecko) Chrome/116.0.0.0 Safari/537.36" etag="2OaTZpotOAVsg2-3XVRf" version="21.6.1" type="github">
  <diagram name="Page-1" id="74e2e168-ea6b-b213-b513-2b3c1d86103e">
    <mxGraphModel dx="1050" dy="608" grid="1" gridSize="10" guides="1" tooltips="1" connect="1" arrows="1" fold="1" page="1" pageScale="1" pageWidth="1100" pageHeight="850" background="none" math="0" shadow="0">
      <root>
        <mxCell id="0" />
        <mxCell id="1" parent="0" />
        <mxCell id="77e6c97f196da883-1" value="dbt Bug Fix Workflow" style="swimlane;html=1;childLayout=stackLayout;startSize=20;rounded=0;shadow=0;labelBackgroundColor=none;strokeWidth=1;fontFamily=Verdana;fontSize=8;align=center;" parent="1" vertex="1">
          <mxGeometry x="70" y="40" width="840" height="640" as="geometry" />
        </mxCell>
        <mxCell id="77e6c97f196da883-2" value="" style="swimlane;html=1;startSize=20;" parent="77e6c97f196da883-1" vertex="1">
          <mxGeometry y="20" width="160" height="620" as="geometry" />
        </mxCell>
        <mxCell id="jT-rOXPytlquSDHr39EF-3" value="&lt;font style=&quot;font-size: 10px;&quot;&gt;Production User&lt;/font&gt;" style="text;html=1;align=center;verticalAlign=middle;resizable=0;points=[];autosize=1;strokeColor=none;fillColor=none;" vertex="1" parent="77e6c97f196da883-2">
          <mxGeometry x="25" y="44" width="100" height="30" as="geometry" />
        </mxCell>
        <mxCell id="jT-rOXPytlquSDHr39EF-4" value="&lt;font style=&quot;font-size: 10px;&quot;&gt;Product Owner/ Ops&lt;/font&gt;" style="text;html=1;align=center;verticalAlign=middle;resizable=0;points=[];autosize=1;strokeColor=none;fillColor=none;" vertex="1" parent="77e6c97f196da883-2">
          <mxGeometry x="25" y="90" width="110" height="30" as="geometry" />
        </mxCell>
        <mxCell id="jT-rOXPytlquSDHr39EF-7" value="&lt;font style=&quot;font-size: 10px;&quot;&gt;Developer/ Ops&lt;/font&gt;" style="text;html=1;align=center;verticalAlign=middle;resizable=0;points=[];autosize=1;strokeColor=none;fillColor=none;" vertex="1" parent="77e6c97f196da883-2">
          <mxGeometry x="30" y="230" width="90" height="30" as="geometry" />
        </mxCell>
        <mxCell id="jT-rOXPytlquSDHr39EF-8" value="&lt;font style=&quot;font-size: 10px;&quot;&gt;Reviewer/ RM&amp;nbsp;&lt;/font&gt;" style="text;html=1;align=center;verticalAlign=middle;resizable=0;points=[];autosize=1;strokeColor=none;fillColor=none;" vertex="1" parent="77e6c97f196da883-2">
          <mxGeometry x="30" y="310" width="90" height="30" as="geometry" />
        </mxCell>
        <mxCell id="jT-rOXPytlquSDHr39EF-17" value="&lt;font style=&quot;font-size: 10px;&quot;&gt;Scrum Master&lt;/font&gt;" style="text;html=1;align=center;verticalAlign=middle;resizable=0;points=[];autosize=1;strokeColor=none;fillColor=none;" vertex="1" parent="77e6c97f196da883-2">
          <mxGeometry x="30" y="570" width="90" height="30" as="geometry" />
        </mxCell>
        <mxCell id="jT-rOXPytlquSDHr39EF-51" value="&lt;font style=&quot;font-size: 10px;&quot;&gt;QA&amp;nbsp;&lt;br&gt;(Stewards/ Owner/ Dev/ Ops)&lt;br&gt;&lt;/font&gt;" style="text;html=1;align=center;verticalAlign=middle;resizable=0;points=[];autosize=1;strokeColor=none;fillColor=none;" vertex="1" parent="77e6c97f196da883-2">
          <mxGeometry x="10" y="510" width="150" height="40" as="geometry" />
        </mxCell>
        <mxCell id="jT-rOXPytlquSDHr39EF-80" value="&lt;font style=&quot;font-size: 10px;&quot;&gt;Pipeline Deployment&lt;/font&gt;" style="text;html=1;align=center;verticalAlign=middle;resizable=0;points=[];autosize=1;strokeColor=none;fillColor=none;" vertex="1" parent="77e6c97f196da883-2">
          <mxGeometry x="10" y="450" width="120" height="30" as="geometry" />
        </mxCell>
        <mxCell id="77e6c97f196da883-28" style="edgeStyle=orthogonalEdgeStyle;rounded=1;html=1;labelBackgroundColor=none;startArrow=none;startFill=0;startSize=5;endArrow=classicThin;endFill=1;endSize=5;jettySize=auto;orthogonalLoop=1;strokeWidth=1;fontFamily=Verdana;fontSize=8;exitX=1;exitY=0.5;exitDx=0;exitDy=0;" parent="77e6c97f196da883-1" source="jT-rOXPytlquSDHr39EF-5" target="77e6c97f196da883-12" edge="1">
          <mxGeometry relative="1" as="geometry" />
        </mxCell>
        <mxCell id="jT-rOXPytlquSDHr39EF-19" value="Yes" style="edgeLabel;html=1;align=center;verticalAlign=middle;resizable=0;points=[];" vertex="1" connectable="0" parent="77e6c97f196da883-28">
          <mxGeometry x="-0.653" y="-2" relative="1" as="geometry">
            <mxPoint as="offset" />
          </mxGeometry>
        </mxCell>
        <mxCell id="77e6c97f196da883-3" value="Issue Report" style="swimlane;html=1;startSize=20;" parent="77e6c97f196da883-1" vertex="1">
          <mxGeometry x="160" y="20" width="160" height="620" as="geometry" />
        </mxCell>
        <mxCell id="77e6c97f196da883-8" value="Report Prod Issue" style="rounded=1;whiteSpace=wrap;html=1;shadow=0;labelBackgroundColor=none;strokeWidth=1;fontFamily=Verdana;fontSize=8;align=center;fillColor=#d5e8d4;strokeColor=#82b366;" parent="77e6c97f196da883-3" vertex="1">
          <mxGeometry x="30" y="29" width="100" height="41" as="geometry" />
        </mxCell>
        <mxCell id="jT-rOXPytlquSDHr39EF-6" value="" style="edgeStyle=orthogonalEdgeStyle;rounded=0;orthogonalLoop=1;jettySize=auto;html=1;" edge="1" parent="77e6c97f196da883-3" source="77e6c97f196da883-9" target="jT-rOXPytlquSDHr39EF-5">
          <mxGeometry relative="1" as="geometry" />
        </mxCell>
        <mxCell id="77e6c97f196da883-9" value="Review/ Analyze the Bug" style="rounded=1;whiteSpace=wrap;html=1;shadow=0;labelBackgroundColor=none;strokeWidth=1;fontFamily=Verdana;fontSize=8;align=center;fillColor=#dae8fc;strokeColor=#6c8ebf;" parent="77e6c97f196da883-3" vertex="1">
          <mxGeometry x="30" y="90" width="100" height="46" as="geometry" />
        </mxCell>
        <mxCell id="jT-rOXPytlquSDHr39EF-2" style="edgeStyle=orthogonalEdgeStyle;rounded=1;html=1;labelBackgroundColor=none;startArrow=none;startFill=0;startSize=5;endArrow=classicThin;endFill=1;endSize=5;jettySize=auto;orthogonalLoop=1;strokeWidth=1;fontFamily=Verdana;fontSize=8;entryX=0.5;entryY=0;entryDx=0;entryDy=0;" edge="1" parent="77e6c97f196da883-3" source="77e6c97f196da883-8" target="77e6c97f196da883-9">
          <mxGeometry relative="1" as="geometry">
            <mxPoint x="40" y="59" as="sourcePoint" />
            <mxPoint x="-250" y="4" as="targetPoint" />
          </mxGeometry>
        </mxCell>
        <mxCell id="jT-rOXPytlquSDHr39EF-16" style="edgeStyle=orthogonalEdgeStyle;rounded=0;orthogonalLoop=1;jettySize=auto;html=1;" edge="1" parent="77e6c97f196da883-3" source="jT-rOXPytlquSDHr39EF-5" target="jT-rOXPytlquSDHr39EF-15">
          <mxGeometry relative="1" as="geometry" />
        </mxCell>
        <mxCell id="jT-rOXPytlquSDHr39EF-18" value="No" style="edgeLabel;html=1;align=center;verticalAlign=middle;resizable=0;points=[];" vertex="1" connectable="0" parent="jT-rOXPytlquSDHr39EF-16">
          <mxGeometry x="-0.1917" y="-2" relative="1" as="geometry">
            <mxPoint as="offset" />
          </mxGeometry>
        </mxCell>
        <mxCell id="jT-rOXPytlquSDHr39EF-5" value="Approve Hotfix" style="rhombus;whiteSpace=wrap;html=1;rounded=0;shadow=0;labelBackgroundColor=none;strokeWidth=1;fontFamily=Verdana;fontSize=8;align=center;fillColor=#dae8fc;strokeColor=#6c8ebf;" vertex="1" parent="77e6c97f196da883-3">
          <mxGeometry x="40" y="154" width="80" height="60" as="geometry" />
        </mxCell>
        <mxCell id="jT-rOXPytlquSDHr39EF-15" value="Add to Backlog" style="rounded=1;whiteSpace=wrap;html=1;shadow=0;labelBackgroundColor=none;strokeWidth=1;fontFamily=Verdana;fontSize=8;align=center;fillColor=#d5e8d4;strokeColor=#82b366;" vertex="1" parent="77e6c97f196da883-3">
          <mxGeometry x="30" y="576" width="100" height="40" as="geometry" />
        </mxCell>
        <mxCell id="77e6c97f196da883-4" value="Dev" style="swimlane;html=1;startSize=20;fillColor=#dae8fc;strokeColor=#6c8ebf;" parent="77e6c97f196da883-1" vertex="1">
          <mxGeometry x="320" y="20" width="160" height="620" as="geometry" />
        </mxCell>
        <mxCell id="77e6c97f196da883-12" value="Fix&amp;nbsp;" style="rounded=1;whiteSpace=wrap;html=1;shadow=0;labelBackgroundColor=none;strokeWidth=1;fontFamily=Verdana;fontSize=8;align=center;fillColor=#dae8fc;strokeColor=#6c8ebf;" parent="77e6c97f196da883-4" vertex="1">
          <mxGeometry x="30" y="220" width="100" height="40" as="geometry" />
        </mxCell>
        <mxCell id="77e6c97f196da883-13" value="Validate" style="rhombus;whiteSpace=wrap;html=1;rounded=0;shadow=0;labelBackgroundColor=none;strokeWidth=1;fontFamily=Verdana;fontSize=8;align=center;fillColor=#dae8fc;strokeColor=#6c8ebf;" parent="77e6c97f196da883-4" vertex="1">
          <mxGeometry x="40" y="365" width="80" height="60" as="geometry" />
        </mxCell>
        <mxCell id="77e6c97f196da883-29" style="edgeStyle=orthogonalEdgeStyle;rounded=1;html=1;labelBackgroundColor=none;startArrow=none;startFill=0;startSize=5;endArrow=classicThin;endFill=1;endSize=5;jettySize=auto;orthogonalLoop=1;strokeWidth=1;fontFamily=Verdana;fontSize=8" parent="77e6c97f196da883-4" source="77e6c97f196da883-12" target="77e6c97f196da883-13" edge="1">
          <mxGeometry relative="1" as="geometry" />
        </mxCell>
        <mxCell id="jT-rOXPytlquSDHr39EF-9" style="edgeStyle=orthogonalEdgeStyle;rounded=1;html=1;labelBackgroundColor=none;startArrow=none;startFill=0;startSize=5;endArrow=classicThin;endFill=1;endSize=5;jettySize=auto;orthogonalLoop=1;strokeWidth=1;fontFamily=Verdana;fontSize=8;entryX=1;entryY=0.5;entryDx=0;entryDy=0;exitX=1;exitY=0.5;exitDx=0;exitDy=0;fillColor=#f8cecc;strokeColor=#b85450;" edge="1" parent="77e6c97f196da883-4" source="77e6c97f196da883-13" target="77e6c97f196da883-12">
          <mxGeometry relative="1" as="geometry">
            <mxPoint x="-125" y="364" as="sourcePoint" />
            <mxPoint x="-15" y="274" as="targetPoint" />
          </mxGeometry>
        </mxCell>
        <mxCell id="jT-rOXPytlquSDHr39EF-10" value="Failed" style="edgeLabel;html=1;align=center;verticalAlign=middle;resizable=0;points=[];" vertex="1" connectable="0" parent="jT-rOXPytlquSDHr39EF-9">
          <mxGeometry x="-0.0196" y="1" relative="1" as="geometry">
            <mxPoint as="offset" />
          </mxGeometry>
        </mxCell>
        <mxCell id="jT-rOXPytlquSDHr39EF-20" value="Importance" style="rhombus;whiteSpace=wrap;html=1;rounded=0;shadow=0;labelBackgroundColor=none;strokeWidth=1;fontFamily=Verdana;fontSize=8;align=center;fillColor=#dae8fc;strokeColor=#6c8ebf;" vertex="1" parent="77e6c97f196da883-4">
          <mxGeometry x="40" y="90" width="80" height="60" as="geometry" />
        </mxCell>
        <mxCell id="77e6c97f196da883-5" value="PREPROD" style="swimlane;html=1;startSize=20;fillColor=#fff2cc;strokeColor=#d6b656;" parent="77e6c97f196da883-1" vertex="1">
          <mxGeometry x="480" y="20" width="160" height="620" as="geometry" />
        </mxCell>
        <mxCell id="jT-rOXPytlquSDHr39EF-48" style="edgeStyle=orthogonalEdgeStyle;rounded=0;orthogonalLoop=1;jettySize=auto;html=1;" edge="1" parent="77e6c97f196da883-5" source="jT-rOXPytlquSDHr39EF-23" target="jT-rOXPytlquSDHr39EF-25">
          <mxGeometry relative="1" as="geometry" />
        </mxCell>
        <mxCell id="jT-rOXPytlquSDHr39EF-23" value="Prepare PR" style="rounded=1;whiteSpace=wrap;html=1;shadow=0;labelBackgroundColor=none;strokeWidth=1;fontFamily=Verdana;fontSize=8;align=center;fillColor=#fff2cc;strokeColor=#d6b656;" vertex="1" parent="77e6c97f196da883-5">
          <mxGeometry x="30" y="220" width="100" height="40" as="geometry" />
        </mxCell>
        <mxCell id="jT-rOXPytlquSDHr39EF-25" value="PR Review&amp;nbsp;" style="rounded=1;whiteSpace=wrap;html=1;shadow=0;labelBackgroundColor=none;strokeWidth=1;fontFamily=Verdana;fontSize=8;align=center;fillColor=#fff2cc;strokeColor=#d6b656;" vertex="1" parent="77e6c97f196da883-5">
          <mxGeometry x="30" y="300" width="100" height="40" as="geometry" />
        </mxCell>
        <mxCell id="jT-rOXPytlquSDHr39EF-67" style="edgeStyle=orthogonalEdgeStyle;rounded=1;orthogonalLoop=1;jettySize=auto;html=1;" edge="1" parent="77e6c97f196da883-5" source="jT-rOXPytlquSDHr39EF-32">
          <mxGeometry relative="1" as="geometry">
            <mxPoint x="190" y="240" as="targetPoint" />
            <Array as="points">
              <mxPoint x="150" y="510" />
              <mxPoint x="150" y="240" />
            </Array>
          </mxGeometry>
        </mxCell>
        <mxCell id="jT-rOXPytlquSDHr39EF-68" value="Success" style="edgeLabel;html=1;align=center;verticalAlign=middle;resizable=0;points=[];" vertex="1" connectable="0" parent="jT-rOXPytlquSDHr39EF-67">
          <mxGeometry x="-0.0116" y="1" relative="1" as="geometry">
            <mxPoint as="offset" />
          </mxGeometry>
        </mxCell>
        <mxCell id="jT-rOXPytlquSDHr39EF-32" value="Validate" style="rhombus;whiteSpace=wrap;html=1;rounded=0;shadow=0;labelBackgroundColor=none;strokeWidth=1;fontFamily=Verdana;fontSize=8;align=center;fillColor=#fff2cc;strokeColor=#d6b656;" vertex="1" parent="77e6c97f196da883-5">
          <mxGeometry x="40" y="493" width="80" height="50" as="geometry" />
        </mxCell>
        <mxCell id="jT-rOXPytlquSDHr39EF-78" value="" style="edgeStyle=orthogonalEdgeStyle;rounded=0;orthogonalLoop=1;jettySize=auto;html=1;" edge="1" parent="77e6c97f196da883-5" source="jT-rOXPytlquSDHr39EF-75" target="jT-rOXPytlquSDHr39EF-32">
          <mxGeometry relative="1" as="geometry" />
        </mxCell>
        <mxCell id="jT-rOXPytlquSDHr39EF-75" value="Deployment" style="rounded=1;whiteSpace=wrap;html=1;shadow=0;labelBackgroundColor=none;strokeWidth=1;fontFamily=Verdana;fontSize=8;align=center;fillColor=#fff2cc;strokeColor=#d6b656;" vertex="1" parent="77e6c97f196da883-5">
          <mxGeometry x="30" y="452" width="100" height="23" as="geometry" />
        </mxCell>
        <mxCell id="77e6c97f196da883-6" value="PROD" style="swimlane;html=1;startSize=20;fillColor=#f8cecc;strokeColor=#b85450;" parent="77e6c97f196da883-1" vertex="1">
          <mxGeometry x="640" y="20" width="160" height="620" as="geometry" />
        </mxCell>
        <mxCell id="jT-rOXPytlquSDHr39EF-53" style="edgeStyle=orthogonalEdgeStyle;rounded=0;orthogonalLoop=1;jettySize=auto;html=1;" edge="1" parent="77e6c97f196da883-6" source="77e6c97f196da883-18" target="jT-rOXPytlquSDHr39EF-42">
          <mxGeometry relative="1" as="geometry" />
        </mxCell>
        <mxCell id="77e6c97f196da883-18" value="PR Review&amp;nbsp;" style="rounded=1;whiteSpace=wrap;html=1;shadow=0;labelBackgroundColor=none;strokeWidth=1;fontFamily=Verdana;fontSize=8;align=center;fillColor=#f8cecc;strokeColor=#b85450;" parent="77e6c97f196da883-6" vertex="1">
          <mxGeometry x="30" y="300" width="100" height="40" as="geometry" />
        </mxCell>
        <mxCell id="jT-rOXPytlquSDHr39EF-52" style="edgeStyle=orthogonalEdgeStyle;rounded=0;orthogonalLoop=1;jettySize=auto;html=1;" edge="1" parent="77e6c97f196da883-6" source="jT-rOXPytlquSDHr39EF-11" target="77e6c97f196da883-18">
          <mxGeometry relative="1" as="geometry" />
        </mxCell>
        <mxCell id="jT-rOXPytlquSDHr39EF-11" value="Prepare PR" style="rounded=1;whiteSpace=wrap;html=1;shadow=0;labelBackgroundColor=none;strokeWidth=1;fontFamily=Verdana;fontSize=8;align=center;fillColor=#f8cecc;strokeColor=#b85450;" vertex="1" parent="77e6c97f196da883-6">
          <mxGeometry x="30" y="220" width="100" height="40" as="geometry" />
        </mxCell>
        <mxCell id="jT-rOXPytlquSDHr39EF-55" style="edgeStyle=orthogonalEdgeStyle;rounded=0;orthogonalLoop=1;jettySize=auto;html=1;" edge="1" parent="77e6c97f196da883-6" source="jT-rOXPytlquSDHr39EF-42" target="jT-rOXPytlquSDHr39EF-69">
          <mxGeometry relative="1" as="geometry">
            <mxPoint x="80" y="450" as="targetPoint" />
          </mxGeometry>
        </mxCell>
        <mxCell id="jT-rOXPytlquSDHr39EF-56" value="Approved" style="edgeLabel;html=1;align=center;verticalAlign=middle;resizable=0;points=[];" vertex="1" connectable="0" parent="jT-rOXPytlquSDHr39EF-55">
          <mxGeometry x="0.0406" y="-2" relative="1" as="geometry">
            <mxPoint as="offset" />
          </mxGeometry>
        </mxCell>
        <mxCell id="jT-rOXPytlquSDHr39EF-42" value="Approve" style="rhombus;whiteSpace=wrap;html=1;rounded=0;shadow=0;labelBackgroundColor=none;strokeWidth=1;fontFamily=Verdana;fontSize=8;align=center;fillColor=#f8cecc;strokeColor=#b85450;" vertex="1" parent="77e6c97f196da883-6">
          <mxGeometry x="40" y="355" width="80" height="55" as="geometry" />
        </mxCell>
        <mxCell id="jT-rOXPytlquSDHr39EF-60" style="edgeStyle=orthogonalEdgeStyle;rounded=1;orthogonalLoop=1;jettySize=auto;html=1;entryX=1;entryY=0.5;entryDx=0;entryDy=0;exitX=1;exitY=0.5;exitDx=0;exitDy=0;" edge="1" parent="77e6c97f196da883-6" source="jT-rOXPytlquSDHr39EF-45" target="jT-rOXPytlquSDHr39EF-59">
          <mxGeometry relative="1" as="geometry">
            <Array as="points">
              <mxPoint x="150" y="524" />
              <mxPoint x="150" y="111" />
            </Array>
          </mxGeometry>
        </mxCell>
        <mxCell id="jT-rOXPytlquSDHr39EF-81" value="Success" style="edgeLabel;html=1;align=center;verticalAlign=middle;resizable=0;points=[];" vertex="1" connectable="0" parent="jT-rOXPytlquSDHr39EF-60">
          <mxGeometry x="-0.1064" y="1" relative="1" as="geometry">
            <mxPoint as="offset" />
          </mxGeometry>
        </mxCell>
        <mxCell id="jT-rOXPytlquSDHr39EF-45" value="Validate" style="rhombus;whiteSpace=wrap;html=1;rounded=0;shadow=0;labelBackgroundColor=none;strokeWidth=1;fontFamily=Verdana;fontSize=8;align=center;fillColor=#fff2cc;strokeColor=#d6b656;" vertex="1" parent="77e6c97f196da883-6">
          <mxGeometry x="45" y="500" width="70" height="47" as="geometry" />
        </mxCell>
        <mxCell id="jT-rOXPytlquSDHr39EF-59" value="Close Issue" style="rounded=1;whiteSpace=wrap;html=1;shadow=0;labelBackgroundColor=none;strokeWidth=1;fontFamily=Verdana;fontSize=8;align=center;fillColor=#d5e8d4;strokeColor=#82b366;" vertex="1" parent="77e6c97f196da883-6">
          <mxGeometry x="30" y="90" width="100" height="41" as="geometry" />
        </mxCell>
        <mxCell id="jT-rOXPytlquSDHr39EF-73" style="edgeStyle=orthogonalEdgeStyle;rounded=0;orthogonalLoop=1;jettySize=auto;html=1;" edge="1" parent="77e6c97f196da883-6" source="jT-rOXPytlquSDHr39EF-69" target="jT-rOXPytlquSDHr39EF-45">
          <mxGeometry relative="1" as="geometry" />
        </mxCell>
        <mxCell id="jT-rOXPytlquSDHr39EF-69" value="Deployment" style="rounded=1;whiteSpace=wrap;html=1;shadow=0;labelBackgroundColor=none;strokeWidth=1;fontFamily=Verdana;fontSize=8;align=center;fillColor=#fff2cc;strokeColor=#d6b656;" vertex="1" parent="77e6c97f196da883-6">
          <mxGeometry x="30" y="453" width="100" height="23" as="geometry" />
        </mxCell>
        <mxCell id="jT-rOXPytlquSDHr39EF-12" style="edgeStyle=orthogonalEdgeStyle;rounded=1;orthogonalLoop=1;jettySize=auto;html=1;exitX=0;exitY=0.5;exitDx=0;exitDy=0;" edge="1" parent="77e6c97f196da883-1" source="77e6c97f196da883-13">
          <mxGeometry relative="1" as="geometry">
            <mxPoint x="400" y="170" as="targetPoint" />
            <Array as="points">
              <mxPoint x="330" y="415" />
              <mxPoint x="330" y="190" />
              <mxPoint x="400" y="190" />
            </Array>
          </mxGeometry>
        </mxCell>
        <mxCell id="jT-rOXPytlquSDHr39EF-27" value="Success" style="edgeLabel;html=1;align=center;verticalAlign=middle;resizable=0;points=[];" vertex="1" connectable="0" parent="jT-rOXPytlquSDHr39EF-12">
          <mxGeometry x="0.1661" y="2" relative="1" as="geometry">
            <mxPoint y="102" as="offset" />
          </mxGeometry>
        </mxCell>
        <mxCell id="jT-rOXPytlquSDHr39EF-21" style="edgeStyle=orthogonalEdgeStyle;rounded=1;orthogonalLoop=1;jettySize=auto;html=1;exitX=0.5;exitY=0;exitDx=0;exitDy=0;entryX=0;entryY=0.5;entryDx=0;entryDy=0;" edge="1" parent="77e6c97f196da883-1" source="jT-rOXPytlquSDHr39EF-20" target="jT-rOXPytlquSDHr39EF-11">
          <mxGeometry relative="1" as="geometry">
            <Array as="points">
              <mxPoint x="400" y="90" />
              <mxPoint x="650" y="90" />
              <mxPoint x="650" y="260" />
            </Array>
          </mxGeometry>
        </mxCell>
        <mxCell id="jT-rOXPytlquSDHr39EF-22" value="Critical" style="edgeLabel;html=1;align=center;verticalAlign=middle;resizable=0;points=[];" vertex="1" connectable="0" parent="jT-rOXPytlquSDHr39EF-21">
          <mxGeometry x="-0.1646" y="1" relative="1" as="geometry">
            <mxPoint as="offset" />
          </mxGeometry>
        </mxCell>
        <mxCell id="jT-rOXPytlquSDHr39EF-24" style="edgeStyle=orthogonalEdgeStyle;rounded=1;orthogonalLoop=1;jettySize=auto;html=1;" edge="1" parent="77e6c97f196da883-1" source="jT-rOXPytlquSDHr39EF-20" target="jT-rOXPytlquSDHr39EF-23">
          <mxGeometry relative="1" as="geometry" />
        </mxCell>
        <mxCell id="jT-rOXPytlquSDHr39EF-66" value="Regular" style="edgeLabel;html=1;align=center;verticalAlign=middle;resizable=0;points=[];" vertex="1" connectable="0" parent="jT-rOXPytlquSDHr39EF-24">
          <mxGeometry x="-0.0419" relative="1" as="geometry">
            <mxPoint as="offset" />
          </mxGeometry>
        </mxCell>
        <mxCell id="jT-rOXPytlquSDHr39EF-37" style="edgeStyle=orthogonalEdgeStyle;rounded=1;orthogonalLoop=1;jettySize=auto;html=1;entryX=1;entryY=0.5;entryDx=0;entryDy=0;fillColor=#f8cecc;strokeColor=#b85450;" edge="1" parent="77e6c97f196da883-1" source="jT-rOXPytlquSDHr39EF-32" target="77e6c97f196da883-12">
          <mxGeometry relative="1" as="geometry" />
        </mxCell>
        <mxCell id="jT-rOXPytlquSDHr39EF-50" value="Failed" style="edgeLabel;html=1;align=center;verticalAlign=middle;resizable=0;points=[];" vertex="1" connectable="0" parent="jT-rOXPytlquSDHr39EF-37">
          <mxGeometry x="-0.5699" relative="1" as="geometry">
            <mxPoint x="5" y="18" as="offset" />
          </mxGeometry>
        </mxCell>
        <mxCell id="jT-rOXPytlquSDHr39EF-44" style="edgeStyle=orthogonalEdgeStyle;rounded=1;orthogonalLoop=1;jettySize=auto;html=1;entryX=1;entryY=0.5;entryDx=0;entryDy=0;exitX=0;exitY=0.5;exitDx=0;exitDy=0;fillColor=#f8cecc;strokeColor=#b85450;" edge="1" parent="77e6c97f196da883-1" source="jT-rOXPytlquSDHr39EF-42" target="77e6c97f196da883-12">
          <mxGeometry relative="1" as="geometry">
            <Array as="points">
              <mxPoint x="660" y="403" />
              <mxPoint x="660" y="570" />
              <mxPoint x="470" y="570" />
              <mxPoint x="470" y="260" />
            </Array>
          </mxGeometry>
        </mxCell>
        <mxCell id="jT-rOXPytlquSDHr39EF-64" value="Rejected" style="edgeLabel;html=1;align=center;verticalAlign=middle;resizable=0;points=[];" vertex="1" connectable="0" parent="jT-rOXPytlquSDHr39EF-44">
          <mxGeometry x="-0.7212" y="-4" relative="1" as="geometry">
            <mxPoint y="33" as="offset" />
          </mxGeometry>
        </mxCell>
        <mxCell id="jT-rOXPytlquSDHr39EF-57" style="edgeStyle=orthogonalEdgeStyle;rounded=1;orthogonalLoop=1;jettySize=auto;html=1;entryX=1;entryY=0.5;entryDx=0;entryDy=0;fillColor=#f8cecc;strokeColor=#b85450;exitX=0.5;exitY=1;exitDx=0;exitDy=0;" edge="1" parent="77e6c97f196da883-1" source="jT-rOXPytlquSDHr39EF-45" target="77e6c97f196da883-12">
          <mxGeometry relative="1" as="geometry">
            <Array as="points">
              <mxPoint x="720" y="580" />
              <mxPoint x="470" y="580" />
              <mxPoint x="470" y="260" />
            </Array>
          </mxGeometry>
        </mxCell>
        <mxCell id="jT-rOXPytlquSDHr39EF-58" value="Failed" style="edgeLabel;html=1;align=center;verticalAlign=middle;resizable=0;points=[];" vertex="1" connectable="0" parent="jT-rOXPytlquSDHr39EF-57">
          <mxGeometry x="-0.4992" y="-2" relative="1" as="geometry">
            <mxPoint as="offset" />
          </mxGeometry>
        </mxCell>
        <mxCell id="jT-rOXPytlquSDHr39EF-41" value="" style="endArrow=none;dashed=1;html=1;rounded=0;" edge="1" parent="1">
          <mxGeometry width="50" height="50" relative="1" as="geometry">
            <mxPoint x="67.3333231608073" y="140" as="sourcePoint" />
            <mxPoint x="871.3333129882812" y="140" as="targetPoint" />
          </mxGeometry>
        </mxCell>
        <mxCell id="jT-rOXPytlquSDHr39EF-49" style="edgeStyle=orthogonalEdgeStyle;rounded=0;orthogonalLoop=1;jettySize=auto;html=1;entryX=0.5;entryY=0;entryDx=0;entryDy=0;" edge="1" parent="1" source="jT-rOXPytlquSDHr39EF-28" target="jT-rOXPytlquSDHr39EF-75">
          <mxGeometry relative="1" as="geometry">
            <mxPoint x="630" y="510" as="targetPoint" />
          </mxGeometry>
        </mxCell>
        <mxCell id="jT-rOXPytlquSDHr39EF-54" value="Approved" style="edgeLabel;html=1;align=center;verticalAlign=middle;resizable=0;points=[];" vertex="1" connectable="0" parent="jT-rOXPytlquSDHr39EF-49">
          <mxGeometry x="-0.2" y="-2" relative="1" as="geometry">
            <mxPoint as="offset" />
          </mxGeometry>
        </mxCell>
        <mxCell id="jT-rOXPytlquSDHr39EF-28" value="Approve" style="rhombus;whiteSpace=wrap;html=1;rounded=0;shadow=0;labelBackgroundColor=none;strokeWidth=1;fontFamily=Verdana;fontSize=8;align=center;fillColor=#fff2cc;strokeColor=#d6b656;" vertex="1" parent="1">
          <mxGeometry x="590" y="416" width="80" height="54" as="geometry" />
        </mxCell>
        <mxCell id="jT-rOXPytlquSDHr39EF-30" style="edgeStyle=orthogonalEdgeStyle;rounded=1;orthogonalLoop=1;jettySize=auto;html=1;entryX=1;entryY=0.5;entryDx=0;entryDy=0;fillColor=#f8cecc;strokeColor=#b85450;exitX=0;exitY=0.5;exitDx=0;exitDy=0;" edge="1" parent="1" source="jT-rOXPytlquSDHr39EF-28" target="77e6c97f196da883-12">
          <mxGeometry relative="1" as="geometry">
            <Array as="points">
              <mxPoint x="540" y="443" />
              <mxPoint x="540" y="300" />
            </Array>
          </mxGeometry>
        </mxCell>
        <mxCell id="jT-rOXPytlquSDHr39EF-31" value="Rejected" style="edgeLabel;html=1;align=center;verticalAlign=middle;resizable=0;points=[];" vertex="1" connectable="0" parent="jT-rOXPytlquSDHr39EF-30">
          <mxGeometry x="-0.4927" y="-2" relative="1" as="geometry">
            <mxPoint as="offset" />
          </mxGeometry>
        </mxCell>
        <mxCell id="jT-rOXPytlquSDHr39EF-29" style="edgeStyle=orthogonalEdgeStyle;rounded=0;orthogonalLoop=1;jettySize=auto;html=1;" edge="1" parent="1" source="jT-rOXPytlquSDHr39EF-25" target="jT-rOXPytlquSDHr39EF-28">
          <mxGeometry relative="1" as="geometry" />
        </mxCell>
        <mxCell id="jT-rOXPytlquSDHr39EF-61" value="" style="endArrow=none;dashed=1;html=1;rounded=0;" edge="1" parent="1">
          <mxGeometry width="50" height="50" relative="1" as="geometry">
            <mxPoint x="70.3333231608073" y="277" as="sourcePoint" />
            <mxPoint x="874.3333129882812" y="277" as="targetPoint" />
          </mxGeometry>
        </mxCell>
        <mxCell id="jT-rOXPytlquSDHr39EF-62" value="" style="endArrow=none;dashed=1;html=1;rounded=0;" edge="1" parent="1">
          <mxGeometry width="50" height="50" relative="1" as="geometry">
            <mxPoint x="70.3333231608073" y="346" as="sourcePoint" />
            <mxPoint x="874.3333129882812" y="346" as="targetPoint" />
          </mxGeometry>
        </mxCell>
        <mxCell id="jT-rOXPytlquSDHr39EF-63" value="" style="endArrow=none;dashed=1;html=1;rounded=0;" edge="1" parent="1">
          <mxGeometry width="50" height="50" relative="1" as="geometry">
            <mxPoint x="70.3333231608073" y="503" as="sourcePoint" />
            <mxPoint x="874.3333129882812" y="503" as="targetPoint" />
          </mxGeometry>
        </mxCell>
        <mxCell id="jT-rOXPytlquSDHr39EF-65" value="" style="endArrow=none;dashed=1;html=1;rounded=0;" edge="1" parent="1">
          <mxGeometry width="50" height="50" relative="1" as="geometry">
            <mxPoint x="70.3333231608073" y="630" as="sourcePoint" />
            <mxPoint x="874.3333129882812" y="630" as="targetPoint" />
          </mxGeometry>
        </mxCell>
        <mxCell id="jT-rOXPytlquSDHr39EF-79" value="" style="endArrow=none;dashed=1;html=1;rounded=0;" edge="1" parent="1">
          <mxGeometry width="50" height="50" relative="1" as="geometry">
            <mxPoint x="71.3333231608073" y="540" as="sourcePoint" />
            <mxPoint x="875.3333129882812" y="540" as="targetPoint" />
          </mxGeometry>
        </mxCell>
      </root>
    </mxGraphModel>
  </diagram>
</mxfile>
